<svg xmlns="http://www.w3.org/2000/svg" xmlns:xlink="http://www.w3.org/1999/xlink" version="1.1" class="marks" width="468" height="167" viewBox="0 0 468 167"><rect width="468" height="167" fill="white"/><g fill="none" stroke-miterlimit="10" transform="translate(62,10)"><g class="mark-group role-frame root" role="graphics-object" aria-roledescription="group mark container"><g transform="translate(0,0)"><path class="background" aria-hidden="true" d="M0.5,0.5h400v120h-400Z" stroke="#ddd"/><g><g class="mark-group role-axis" aria-hidden="true"><g transform="translate(0.5,120.5)"><path class="background" aria-hidden="true" d="M0,0h0v0h0Z" pointer-events="none"/><g><g class="mark-rule role-axis-grid" pointer-events="none"><line transform="translate(0,-120)" x2="0" y2="120" stroke="#ddd" stroke-width="1" opacity="1"/><line transform="translate(50,-120)" x2="0" y2="120" stroke="#ddd" stroke-width="1" opacity="1"/><line transform="translate(100,-120)" x2="0" y2="120" stroke="#ddd" stroke-width="1" opacity="1"/><line transform="translate(150,-120)" x2="0" y2="120" stroke="#ddd" stroke-width="1" opacity="1"/><line transform="translate(200,-120)" x2="0" y2="120" stroke="#ddd" stroke-width="1" opacity="1"/><line transform="translate(250,-120)" x2="0" y2="120" stroke="#ddd" stroke-width="1" opacity="1"/><line transform="translate(300,-120)" x2="0" y2="120" stroke="#ddd" stroke-width="1" opacity="1"/><line transform="translate(350,-120)" x2="0" y2="120" stroke="#ddd" stroke-width="1" opacity="1"/><line transform="translate(400,-120)" x2="0" y2="120" stroke="#ddd" stroke-width="1" opacity="1"/></g></g><path class="foreground" aria-hidden="true" d="" pointer-events="none" display="none"/></g></g><g class="mark-group role-axis" aria-hidden="true"><g transform="translate(0.5,0.5)"><path class="background" aria-hidden="true" d="M0,0h0v0h0Z" pointer-events="none"/><g><g class="mark-rule role-axis-grid" pointer-events="none"><line transform="translate(0,120)" x2="400" y2="0" stroke="#ddd" stroke-width="1" opacity="1"/><line transform="translate(0,90)" x2="400" y2="0" stroke="#ddd" stroke-width="1" opacity="1"/><line transform="translate(0,60)" x2="400" y2="0" stroke="#ddd" stroke-width="1" opacity="1"/><line transform="translate(0,30)" x2="400" y2="0" stroke="#ddd" stroke-width="1" opacity="1"/><line transform="translate(0,0)" x2="400" y2="0" stroke="#ddd" stroke-width="1" opacity="1"/></g></g><path class="foreground" aria-hidden="true" d="" pointer-events="none" display="none"/></g></g><g class="mark-group role-axis" role="graphics-symbol" aria-roledescription="axis" aria-label="X-axis titled 'Body Mass (g)' for a linear scale with values from 2,500 to 6,500"><g transform="translate(0.5,120.5)"><path class="background" aria-hidden="true" d="M0,0h0v0h0Z" pointer-events="none"/><g><g class="mark-rule role-axis-tick" pointer-events="none"><line transform="translate(0,0)" x2="0" y2="5" stroke="#888" stroke-width="1" opacity="1"/><line transform="translate(50,0)" x2="0" y2="5" stroke="#888" stroke-width="1" opacity="1"/><line transform="translate(100,0)" x2="0" y2="5" stroke="#888" stroke-width="1" opacity="1"/><line transform="translate(150,0)" x2="0" y2="5" stroke="#888" stroke-width="1" opacity="1"/><line transform="translate(200,0)" x2="0" y2="5" stroke="#888" stroke-width="1" opacity="1"/><line transform="translate(250,0)" x2="0" y2="5" stroke="#888" stroke-width="1" opacity="1"/><line transform="translate(300,0)" x2="0" y2="5" stroke="#888" stroke-width="1" opacity="1"/><line transform="translate(350,0)" x2="0" y2="5" stroke="#888" stroke-width="1" opacity="1"/><line transform="translate(400,0)" x2="0" y2="5" stroke="#888" stroke-width="1" opacity="1"/></g><g class="mark-text role-axis-label" pointer-events="none"><text text-anchor="start" transform="translate(0,15)" font-family="sans-serif" font-size="10px" fill="#000" opacity="1">2,500</text><text text-anchor="middle" transform="translate(50,15)" font-family="sans-serif" font-size="10px" fill="#000" opacity="1">3,000</text><text text-anchor="middle" transform="translate(100,15)" font-family="sans-serif" font-size="10px" fill="#000" opacity="1">3,500</text><text text-anchor="middle" transform="translate(150,15)" font-family="sans-serif" font-size="10px" fill="#000" opacity="1">4,000</text><text text-anchor="middle" transform="translate(200,15)" font-family="sans-serif" font-size="10px" fill="#000" opacity="1">4,500</text><text text-anchor="middle" transform="translate(250,15)" font-family="sans-serif" font-size="10px" fill="#000" opacity="1">5,000</text><text text-anchor="middle" transform="translate(300,15)" font-family="sans-serif" font-size="10px" fill="#000" opacity="1">5,500</text><text text-anchor="middle" transform="translate(350,15)" font-family="sans-serif" font-size="10px" fill="#000" opacity="1">6,000</text><text text-anchor="end" transform="translate(400,15)" font-family="sans-serif" font-size="10px" fill="#000" opacity="1">6,500</text></g><g class="mark-rule role-axis-domain" pointer-events="none"><line transform="translate(0,0)" x2="400" y2="0" stroke="#888" stroke-width="1" opacity="1"/></g><g class="mark-text role-axis-title" pointer-events="none"><text text-anchor="middle" transform="translate(200,30)" font-family="sans-serif" font-size="11px" font-weight="bold" fill="#000" opacity="1">Body Mass (g)</text></g></g><path class="foreground" aria-hidden="true" d="" pointer-events="none" display="none"/></g></g><g class="mark-group role-axis" role="graphics-symbol" aria-roledescription="axis" aria-label="Y-axis titled 'density' for a linear scale with values from 0.0000 to 0.0020"><g transform="translate(0.5,0.5)"><path class="background" aria-hidden="true" d="M0,0h0v0h0Z" pointer-events="none"/><g><g class="mark-rule role-axis-tick" pointer-events="none"><line transform="translate(0,120)" x2="-5" y2="0" stroke="#888" stroke-width="1" opacity="1"/><line transform="translate(0,90)" x2="-5" y2="0" stroke="#888" stroke-width="1" opacity="1"/><line transform="translate(0,60)" x2="-5" y2="0" stroke="#888" stroke-width="1" opacity="1"/><line transform="translate(0,30)" x2="-5" y2="0" stroke="#888" stroke-width="1" opacity="1"/><line transform="translate(0,0)" x2="-5" y2="0" stroke="#888" stroke-width="1" opacity="1"/></g><g class="mark-text role-axis-label" pointer-events="none"><text text-anchor="end" transform="translate(-7,123)" font-family="sans-serif" font-size="10px" fill="#000" opacity="1">0.0000</text><text text-anchor="end" transform="translate(-7,93)" font-family="sans-serif" font-size="10px" fill="#000" opacity="1">0.0005</text><text text-anchor="end" transform="translate(-7,63)" font-family="sans-serif" font-size="10px" fill="#000" opacity="1">0.0010</text><text text-anchor="end" transform="translate(-7,33)" font-family="sans-serif" font-size="10px" fill="#000" opacity="1">0.0015</text><text text-anchor="end" transform="translate(-7,3)" font-family="sans-serif" font-size="10px" fill="#000" opacity="1">0.0020</text></g><g class="mark-rule role-axis-domain" pointer-events="none"><line transform="translate(0,120)" x2="0" y2="-120" stroke="#888" stroke-width="1" opacity="1"/></g><g class="mark-text role-axis-title" pointer-events="none"><text text-anchor="middle" transform="translate(-45.990234375,60) rotate(-90) translate(0,-2)" font-family="sans-serif" font-size="11px" font-weight="bold" fill="#000" opacity="1">density</text></g></g><path class="foreground" aria-hidden="true" d="" pointer-events="none" display="none"/></g></g><g class="mark-group role-scope pathgroup" role="graphics-object" aria-roledescription="group mark container"><g transform="translate(0,0)"><path class="background" aria-hidden="true" d="M0,0h400v120h-400Z"/><g><g class="mark-area role-mark marks" role="graphics-object" aria-roledescription="area mark container"><path aria-label="Body Mass (g): 2500; density: 0.000010403897536; Species: Adelie" role="graphics-symbol" aria-roledescription="area mark" d="M0,118.29L2,117.915L4,117.486L6,117L8,116.457L10,115.855L12,115.195L14,114.478L16,113.705L18,112.877L20,111.997L22,111.068L24,110.091L26,109.069L28,108.002L30,106.892L32,105.737L34,104.533L36,103.276L38,101.958L40,100.568L42,99.092L44,97.515L46,95.818L48,93.983L50,91.991L52,89.825L54,87.47L56,84.916L58,82.16L60,79.204L62,76.059L64,72.741L66,69.277L68,65.697L70,62.039L72,58.343L74,54.65L76,51.001L78,47.432L80,43.978L82,40.664L84,37.51L86,34.529L88,31.727L90,29.104L92,26.654L94,24.37L96,22.244L98,20.27L100,18.442L102,16.763L104,15.237L106,13.874L108,12.691L110,11.707L112,10.941L114,10.416L116,10.15L118,10.157L120,10.446L122,11.018L124,11.866L126,12.975L128,14.324L130,15.886L132,17.63L134,19.522L136,21.531L138,23.625L140,25.778L142,27.966L144,30.171L146,32.379L148,34.58L150,36.766L152,38.929L154,41.063L156,43.16L158,45.209L160,47.2L162,49.119L164,50.951L166,52.682L168,54.297L170,55.785L172,57.136L174,58.346L176,59.414L178,60.343L180,61.14L182,61.817L184,62.387L186,62.867L188,63.273L190,63.621L192,63.926L194,64.203L196,64.461L198,64.711L200,64.959L202,65.209L204,65.465L206,65.728L208,66.001L210,66.284L212,66.581L214,66.894L216,67.229L218,67.59L220,67.985L222,68.419L224,68.899L226,69.43L228,70.017L230,70.662L232,71.364L234,72.12L236,72.926L238,73.773L240,74.651L242,75.55L244,76.458L246,77.363L248,78.252L250,79.115L252,79.941L254,80.722L256,81.451L258,82.124L260,82.735L262,83.284L264,83.77L266,84.193L268,84.556L270,84.863L272,85.117L274,85.324L276,85.49L278,85.621L280,85.726L282,85.812L284,85.888L286,85.962L288,86.043L290,86.139L292,86.258L294,86.41L296,86.6L298,86.835L300,87.121L302,87.463L304,87.864L306,88.326L308,88.85L310,89.437L312,90.084L314,90.79L316,91.552L318,92.364L320,93.223L322,94.122L324,95.057L326,96.02L328,97.007L330,98.011L332,99.026L334,100.047L336,101.068L338,102.085L340,103.093L342,104.088L344,105.066L346,106.024L348,106.958L350,107.864L352,108.742L354,109.587L356,110.397L358,111.172L360,111.907L362,112.604L364,113.26L366,113.875L368,114.448L370,114.981L372,115.474L374,115.928L376,116.344L378,116.725L380,117.072L382,117.387L384,117.673L386,117.932L388,118.167L390,118.379L392,118.57L394,118.742L396,118.897L398,119.037L400,119.162L400,119.162L398,119.037L396,118.897L394,118.742L392,118.57L390,118.379L388,118.167L386,117.932L384,117.673L382,117.387L380,117.072L378,116.725L376,116.344L374,115.928L372,115.474L370,114.981L368,114.448L366,113.875L364,113.26L362,112.604L360,111.907L358,111.172L356,110.397L354,109.587L352,108.742L350,107.864L348,106.958L346,106.024L344,105.066L342,104.088L340,103.093L338,102.085L336,101.068L334,100.047L332,99.026L330,98.011L328,97.007L326,96.02L324,95.057L322,94.122L320,93.223L318,92.364L316,91.552L314,90.79L312,90.084L310,89.437L308,88.85L306,88.326L304,87.864L302,87.463L300,87.122L298,86.836L296,86.601L294,86.411L292,86.261L290,86.142L288,86.048L286,85.969L284,85.899L282,85.828L280,85.749L278,85.654L276,85.536L274,85.388L272,85.205L270,84.982L268,84.716L266,84.405L264,84.048L262,83.646L260,83.199L258,82.713L256,82.191L254,81.64L252,81.069L250,80.487L248,79.904L246,79.33L244,78.779L242,78.261L240,77.788L238,77.369L236,77.012L234,76.725L232,76.51L230,76.369L228,76.302L226,76.305L224,76.372L222,76.498L220,76.675L218,76.898L216,77.159L214,77.454L212,77.779L210,78.132L208,78.511L206,78.916L204,79.346L202,79.8L200,80.276L198,80.768L196,81.27L194,81.769L192,82.254L190,82.709L188,83.114L186,83.452L184,83.702L182,83.847L180,83.871L178,83.762L176,83.513L174,83.12L172,82.588L170,81.924L168,81.141L166,80.255L164,79.285L162,78.249L160,77.165L158,76.048L156,74.908L154,73.755L152,72.589L150,71.411L148,70.216L146,69.001L144,67.763L142,66.499L140,65.215L138,63.92L136,62.629L134,61.365L132,60.156L130,59.034L128,58.032L126,57.183L124,56.519L122,56.064L120,55.837L118,55.847L116,56.094L114,56.571L112,57.26L110,58.142L108,59.189L106,60.376L104,61.677L102,63.069L100,64.535L98,66.065L96,67.653L94,69.3L92,71.014L90,72.804L88,74.68L86,76.652L84,78.726L82,80.907L80,83.188L78,85.559L76,88.003L74,90.494L72,93.003L70,95.495L68,97.935L66,100.286L64,102.516L62,104.595L60,106.499L58,108.211L56,109.722L54,111.029L52,112.136L50,113.055L48,113.8L46,114.39L44,114.848L42,115.195L40,115.454L38,115.645L36,115.789L34,115.901L32,115.997L30,116.088L28,116.185L26,116.294L24,116.419L22,116.565L20,116.731L18,116.917L16,117.121L14,117.34L12,117.569L10,117.805L8,118.043L6,118.276L4,118.502L2,118.716L0,118.914Z" fill="#4c78a8"/></g></g><path class="foreground" aria-hidden="true" d="" display="none"/></g><g transform="translate(0,0)"><path class="background" aria-hidden="true" d="M0,0h400v120h-400Z"/><g><g class="mark-area role-mark marks" role="graphics-object" aria-roledescription="area mark container"><path aria-label="Body Mass (g): 2500; density: 0.000018097612155; Species: Chinstrap" role="graphics-symbol" aria-roledescription="area mark" d="M0,118.914L2,118.716L4,118.502L6,118.276L8,118.043L10,117.805L12,117.569L14,117.34L16,117.121L18,116.917L20,116.731L22,116.565L24,116.419L26,116.294L28,116.185L30,116.088L32,115.997L34,115.901L36,115.789L38,115.645L40,115.454L42,115.195L44,114.848L46,114.39L48,113.8L50,113.055L52,112.136L54,111.029L56,109.722L58,108.211L60,106.499L62,104.595L64,102.516L66,100.286L68,97.935L70,95.495L72,93.003L74,90.494L76,88.003L78,85.559L80,83.188L82,80.907L84,78.726L86,76.652L88,74.68L90,72.804L92,71.014L94,69.3L96,67.653L98,66.065L100,64.535L102,63.069L104,61.677L106,60.376L108,59.189L110,58.142L112,57.26L114,56.571L116,56.094L118,55.847L120,55.837L122,56.064L124,56.519L126,57.183L128,58.032L130,59.034L132,60.156L134,61.365L136,62.629L138,63.92L140,65.215L142,66.499L144,67.763L146,69.001L148,70.216L150,71.411L152,72.589L154,73.755L156,74.908L158,76.048L160,77.165L162,78.249L164,79.285L166,80.255L168,81.141L170,81.924L172,82.588L174,83.12L176,83.513L178,83.762L180,83.871L182,83.847L184,83.702L186,83.452L188,83.114L190,82.709L192,82.254L194,81.769L196,81.27L198,80.768L200,80.276L202,79.8L204,79.346L206,78.916L208,78.511L210,78.132L212,77.779L214,77.454L216,77.159L218,76.898L220,76.675L222,76.498L224,76.372L226,76.305L228,76.302L230,76.369L232,76.51L234,76.725L236,77.012L238,77.369L240,77.788L242,78.261L244,78.779L246,79.33L248,79.904L250,80.487L252,81.069L254,81.64L256,82.191L258,82.713L260,83.199L262,83.646L264,84.048L266,84.405L268,84.716L270,84.982L272,85.205L274,85.388L276,85.536L278,85.654L280,85.749L282,85.828L284,85.899L286,85.969L288,86.048L290,86.142L292,86.261L294,86.411L296,86.601L298,86.836L300,87.122L302,87.463L304,87.864L306,88.326L308,88.85L310,89.437L312,90.084L314,90.79L316,91.552L318,92.364L320,93.223L322,94.122L324,95.057L326,96.02L328,97.007L330,98.011L332,99.026L334,100.047L336,101.068L338,102.085L340,103.093L342,104.088L344,105.066L346,106.024L348,106.958L350,107.864L352,108.742L354,109.587L356,110.397L358,111.172L360,111.907L362,112.604L364,113.26L366,113.875L368,114.448L370,114.981L372,115.474L374,115.928L376,116.344L378,116.725L380,117.072L382,117.387L384,117.673L386,117.932L388,118.167L390,118.379L392,118.57L394,118.742L396,118.897L398,119.037L400,119.162L400,119.162L398,119.037L396,118.897L394,118.742L392,118.57L390,118.379L388,118.167L386,117.932L384,117.673L382,117.387L380,117.072L378,116.725L376,116.344L374,115.928L372,115.474L370,114.981L368,114.448L366,113.875L364,113.26L362,112.604L360,111.907L358,111.172L356,110.397L354,109.587L352,108.742L350,107.864L348,106.958L346,106.024L344,105.066L342,104.088L340,103.093L338,102.085L336,101.068L334,100.047L332,99.026L330,98.011L328,97.007L326,96.02L324,95.057L322,94.122L320,93.223L318,92.364L316,91.552L314,90.79L312,90.084L310,89.437L308,88.85L306,88.326L304,87.864L302,87.464L300,87.122L298,86.836L296,86.601L294,86.412L292,86.262L290,86.144L288,86.05L286,85.973L284,85.905L282,85.838L280,85.764L278,85.676L276,85.567L274,85.433L272,85.269L270,85.071L268,84.838L266,84.57L264,84.268L262,83.933L260,83.57L258,83.183L256,82.779L254,82.366L252,81.951L250,81.543L248,81.152L246,80.787L244,80.458L242,80.176L240,79.948L238,79.784L236,79.691L234,79.678L232,79.749L230,79.91L228,80.163L226,80.51L224,80.952L222,81.486L220,82.109L218,82.817L216,83.604L214,84.461L212,85.382L210,86.355L208,87.373L206,88.425L204,89.502L202,90.595L200,91.696L198,92.797L196,93.891L194,94.975L192,96.044L190,97.094L188,98.125L186,99.135L184,100.123L182,101.091L180,102.038L178,102.965L176,103.874L174,104.764L172,105.636L170,106.49L168,107.325L166,108.142L164,108.938L162,109.713L160,110.465L158,111.192L156,111.893L154,112.567L152,113.21L150,113.823L148,114.403L146,114.951L144,115.464L142,115.944L140,116.389L138,116.8L136,117.178L134,117.524L132,117.838L130,118.122L128,118.377L126,118.606L124,118.808L122,118.987L120,119.145L118,119.282L116,119.401L114,119.503L112,119.591L110,119.665L108,119.728L106,119.781L104,119.824L102,119.86L100,119.89L98,119.914L96,119.933L94,119.948L92,119.961L90,119.97L88,119.977L86,119.983L84,119.988L82,119.991L80,119.993L78,119.995L76,119.997L74,119.998L72,119.998L70,119.999L68,119.999L66,119.999L64,120L62,120L60,120L58,120L56,120L54,120L52,120L50,120L48,120L46,120L44,120L42,120L40,120L38,120L36,120L34,120L32,120L30,120L28,120L26,120L24,120L22,120L20,120L18,120L16,120L14,120L12,120L10,120L8,120L6,120L4,120L2,120L0,120Z" fill="#f58518"/></g></g><path class="foreground" aria-hidden="true" d="" display="none"/></g><g transform="translate(0,0)"><path class="background" aria-hidden="true" d="M0,0h400v120h-400Z"/><g><g class="mark-area role-mark marks" role="graphics-object" aria-roledescription="area mark container"><path aria-label="Body Mass (g): 2500; density: 1.60574227996e-16; Species: Gentoo" role="graphics-symbol" aria-roledescription="area mark" d="M0,120L2,120L4,120L6,120L8,120L10,120L12,120L14,120L16,120L18,120L20,120L22,120L24,120L26,120L28,120L30,120L32,120L34,120L36,120L38,120L40,120L42,120L44,120L46,120L48,120L50,120L52,120L54,120L56,120L58,120L60,120L62,120L64,120L66,119.999L68,119.999L70,119.999L72,119.998L74,119.998L76,119.997L78,119.995L80,119.993L82,119.991L84,119.988L86,119.983L88,119.977L90,119.97L92,119.961L94,119.948L96,119.933L98,119.914L100,119.89L102,119.86L104,119.824L106,119.781L108,119.728L110,119.665L112,119.591L114,119.503L116,119.401L118,119.282L120,119.145L122,118.987L124,118.808L126,118.606L128,118.377L130,118.122L132,117.838L134,117.524L136,117.178L138,116.8L140,116.389L142,115.944L144,115.464L146,114.951L148,114.403L150,113.823L152,113.21L154,112.567L156,111.893L158,111.192L160,110.465L162,109.713L164,108.938L166,108.142L168,107.325L170,106.49L172,105.636L174,104.764L176,103.874L178,102.965L180,102.038L182,101.091L184,100.123L186,99.135L188,98.125L190,97.094L192,96.044L194,94.975L196,93.891L198,92.797L200,91.696L202,90.595L204,89.502L206,88.425L208,87.373L210,86.355L212,85.382L214,84.461L216,83.604L218,82.817L220,82.109L222,81.486L224,80.952L226,80.51L228,80.163L230,79.91L232,79.749L234,79.678L236,79.691L238,79.784L240,79.948L242,80.176L244,80.458L246,80.787L248,81.152L250,81.543L252,81.951L254,82.366L256,82.779L258,83.183L260,83.57L262,83.933L264,84.268L266,84.57L268,84.838L270,85.071L272,85.269L274,85.433L276,85.567L278,85.676L280,85.764L282,85.838L284,85.905L286,85.973L288,86.05L290,86.144L292,86.262L294,86.412L296,86.601L298,86.836L300,87.122L302,87.464L304,87.864L306,88.326L308,88.85L310,89.437L312,90.084L314,90.79L316,91.552L318,92.364L320,93.223L322,94.122L324,95.057L326,96.02L328,97.007L330,98.011L332,99.026L334,100.047L336,101.068L338,102.085L340,103.093L342,104.088L344,105.066L346,106.024L348,106.958L350,107.864L352,108.742L354,109.587L356,110.397L358,111.172L360,111.907L362,112.604L364,113.26L366,113.875L368,114.448L370,114.981L372,115.474L374,115.928L376,116.344L378,116.725L380,117.072L382,117.387L384,117.673L386,117.932L388,118.167L390,118.379L392,118.57L394,118.742L396,118.897L398,119.037L400,119.162L400,120L398,120L396,120L394,120L392,120L390,120L388,120L386,120L384,120L382,120L380,120L378,120L376,120L374,120L372,120L370,120L368,120L366,120L364,120L362,120L360,120L358,120L356,120L354,120L352,120L350,120L348,120L346,120L344,120L342,120L340,120L338,120L336,120L334,120L332,120L330,120L328,120L326,120L324,120L322,120L320,120L318,120L316,120L314,120L312,120L310,120L308,120L306,120L304,120L302,120L300,120L298,120L296,120L294,120L292,120L290,120L288,120L286,120L284,120L282,120L280,120L278,120L276,120L274,120L272,120L270,120L268,120L266,120L264,120L262,120L260,120L258,120L256,120L254,120L252,120L250,120L248,120L246,120L244,120L242,120L240,120L238,120L236,120L234,120L232,120L230,120L228,120L226,120L224,120L222,120L220,120L218,120L216,120L214,120L212,120L210,120L208,120L206,120L204,120L202,120L200,120L198,120L196,120L194,120L192,120L190,120L188,120L186,120L184,120L182,120L180,120L178,120L176,120L174,120L172,120L170,120L168,120L166,120L164,120L162,120L160,120L158,120L156,120L154,120L152,120L150,120L148,120L146,120L144,120L142,120L140,120L138,120L136,120L134,120L132,120L130,120L128,120L126,120L124,120L122,120L120,120L118,120L116,120L114,120L112,120L110,120L108,120L106,120L104,120L102,120L100,120L98,120L96,120L94,120L92,120L90,120L88,120L86,120L84,120L82,120L80,120L78,120L76,120L74,120L72,120L70,120L68,120L66,120L64,120L62,120L60,120L58,120L56,120L54,120L52,120L50,120L48,120L46,120L44,120L42,120L40,120L38,120L36,120L34,120L32,120L30,120L28,120L26,120L24,120L22,120L20,120L18,120L16,120L14,120L12,120L10,120L8,120L6,120L4,120L2,120L0,120Z" fill="#e45756"/></g></g><path class="foreground" aria-hidden="true" d="" display="none"/></g></g><g class="mark-text role-mark marks_label" role="graphics-object" aria-roledescription="text mark container"><text aria-label="Species: undefined" role="graphics-symbol" aria-roledescription="text mark" text-anchor="middle" transform="translate(118,48)" font-family="sans-serif" font-size="11px" fill="black" opacity="1">Adelie</text><text aria-label="Species: undefined" role="graphics-symbol" aria-roledescription="text mark" text-anchor="middle" transform="translate(124,99)" font-family="sans-serif" font-size="11px" fill="black" opacity="1">Chinstrap</text><text aria-label="Species: undefined" role="graphics-symbol" aria-roledescription="text mark" text-anchor="middle" transform="translate(254,108)" font-family="sans-serif" font-size="11px" fill="black" opacity="1">Gentoo</text></g></g><path class="foreground" aria-hidden="true" d="" display="none"/></g></g></g></svg>